<mxfile host="www.draw.io" modified="2020-03-11T07:02:39.006Z" agent="Mozilla/5.0 (Macintosh; Intel Mac OS X 10_13_6) AppleWebKit/537.36 (KHTML, like Gecko) Chrome/80.0.3987.132 Safari/537.36" etag="tUlwMUM4f9Q59mrOGMjz" version="12.8.2" type="github">
  <diagram id="-tf9EoZqUMCexn-NLoRd" name="Page-1">
    <mxGraphModel dx="932" dy="634" grid="1" gridSize="10" guides="1" tooltips="1" connect="1" arrows="1" fold="1" page="1" pageScale="1" pageWidth="827" pageHeight="1169" math="0" shadow="0">
      <root>
        <mxCell id="0" />
        <mxCell id="1" parent="0" />
        <mxCell id="9h0O6dfFpB8sq4Mwi-km-174" value="" style="rounded=1;whiteSpace=wrap;html=1;fillColor=none;gradientColor=none;direction=south;dashed=1;strokeColor=#FF3333;" parent="1" vertex="1">
          <mxGeometry x="225" y="355" width="60" height="190" as="geometry" />
        </mxCell>
        <mxCell id="9h0O6dfFpB8sq4Mwi-km-22" value="S1" style="text;html=1;strokeColor=none;fillColor=none;align=center;verticalAlign=middle;whiteSpace=wrap;rounded=0;" parent="1" vertex="1">
          <mxGeometry x="452.5" y="525" width="40" height="20" as="geometry" />
        </mxCell>
        <mxCell id="1RHUN93Ohzn8sy9XqsTB-6" style="edgeStyle=orthogonalEdgeStyle;curved=1;rounded=0;orthogonalLoop=1;jettySize=auto;html=1;exitX=1;exitY=0.5;exitDx=0;exitDy=0;entryX=1;entryY=0.5;entryDx=0;entryDy=0;dashed=1;" edge="1" parent="1" source="9h0O6dfFpB8sq4Mwi-km-60" target="9h0O6dfFpB8sq4Mwi-km-126">
          <mxGeometry relative="1" as="geometry">
            <Array as="points">
              <mxPoint x="473" y="620" />
              <mxPoint x="135" y="620" />
            </Array>
          </mxGeometry>
        </mxCell>
        <mxCell id="9h0O6dfFpB8sq4Mwi-km-60" value="" style="rounded=1;whiteSpace=wrap;html=1;rotation=90;" parent="1" vertex="1">
          <mxGeometry x="397.5" y="430" width="150" height="30" as="geometry" />
        </mxCell>
        <mxCell id="9h0O6dfFpB8sq4Mwi-km-14" value="" style="ellipse;whiteSpace=wrap;html=1;aspect=fixed;gradientColor=#ffa500;fillColor=#ffcd28;strokeColor=#d79b00;" parent="1" vertex="1">
          <mxGeometry x="462.5" y="375" width="20" height="20" as="geometry" />
        </mxCell>
        <mxCell id="9h0O6dfFpB8sq4Mwi-km-61" value="" style="ellipse;whiteSpace=wrap;html=1;aspect=fixed;gradientColor=#ffa500;fillColor=#ffcd28;strokeColor=#d79b00;" parent="1" vertex="1">
          <mxGeometry x="462.5" y="405" width="20" height="20" as="geometry" />
        </mxCell>
        <mxCell id="9h0O6dfFpB8sq4Mwi-km-62" value="" style="ellipse;whiteSpace=wrap;html=1;aspect=fixed;gradientColor=#ffa500;fillColor=#ffcd28;strokeColor=#d79b00;" parent="1" vertex="1">
          <mxGeometry x="462.5" y="465" width="20" height="20" as="geometry" />
        </mxCell>
        <mxCell id="9h0O6dfFpB8sq4Mwi-km-67" value="" style="ellipse;whiteSpace=wrap;html=1;aspect=fixed;gradientColor=#ffa500;fillColor=#ffcd28;strokeColor=#d79b00;" parent="1" vertex="1">
          <mxGeometry x="462.5" y="495" width="20" height="20" as="geometry" />
        </mxCell>
        <mxCell id="9h0O6dfFpB8sq4Mwi-km-73" value="" style="ellipse;whiteSpace=wrap;html=1;aspect=fixed;gradientColor=#ffa500;fillColor=#ffcd28;strokeColor=#d79b00;" parent="1" vertex="1">
          <mxGeometry x="462.5" y="435" width="20" height="20" as="geometry" />
        </mxCell>
        <mxCell id="9h0O6dfFpB8sq4Mwi-km-80" value="S2" style="text;html=1;strokeColor=none;fillColor=none;align=center;verticalAlign=middle;whiteSpace=wrap;rounded=0;" parent="1" vertex="1">
          <mxGeometry x="507.5" y="525" width="40" height="20" as="geometry" />
        </mxCell>
        <mxCell id="9h0O6dfFpB8sq4Mwi-km-81" value="" style="rounded=1;whiteSpace=wrap;html=1;rotation=90;" parent="1" vertex="1">
          <mxGeometry x="452.5" y="430" width="150" height="30" as="geometry" />
        </mxCell>
        <mxCell id="9h0O6dfFpB8sq4Mwi-km-82" value="" style="ellipse;whiteSpace=wrap;html=1;aspect=fixed;gradientColor=#ffa500;fillColor=#ffcd28;strokeColor=#d79b00;" parent="1" vertex="1">
          <mxGeometry x="517.5" y="375" width="20" height="20" as="geometry" />
        </mxCell>
        <mxCell id="9h0O6dfFpB8sq4Mwi-km-83" value="" style="ellipse;whiteSpace=wrap;html=1;aspect=fixed;gradientColor=#ffa500;fillColor=#ffcd28;strokeColor=#d79b00;" parent="1" vertex="1">
          <mxGeometry x="517.5" y="405" width="20" height="20" as="geometry" />
        </mxCell>
        <mxCell id="9h0O6dfFpB8sq4Mwi-km-84" value="" style="ellipse;whiteSpace=wrap;html=1;aspect=fixed;gradientColor=#ffa500;fillColor=#ffcd28;strokeColor=#d79b00;" parent="1" vertex="1">
          <mxGeometry x="517.5" y="465" width="20" height="20" as="geometry" />
        </mxCell>
        <mxCell id="9h0O6dfFpB8sq4Mwi-km-85" value="" style="ellipse;whiteSpace=wrap;html=1;aspect=fixed;gradientColor=#ffa500;fillColor=#ffcd28;strokeColor=#d79b00;" parent="1" vertex="1">
          <mxGeometry x="517.5" y="495" width="20" height="20" as="geometry" />
        </mxCell>
        <mxCell id="9h0O6dfFpB8sq4Mwi-km-86" value="" style="ellipse;whiteSpace=wrap;html=1;aspect=fixed;gradientColor=#ffa500;fillColor=#ffcd28;strokeColor=#d79b00;" parent="1" vertex="1">
          <mxGeometry x="517.5" y="435" width="20" height="20" as="geometry" />
        </mxCell>
        <mxCell id="9h0O6dfFpB8sq4Mwi-km-87" value="S3" style="text;html=1;strokeColor=none;fillColor=none;align=center;verticalAlign=middle;whiteSpace=wrap;rounded=0;" parent="1" vertex="1">
          <mxGeometry x="562.5" y="525" width="40" height="20" as="geometry" />
        </mxCell>
        <mxCell id="1RHUN93Ohzn8sy9XqsTB-7" style="edgeStyle=orthogonalEdgeStyle;curved=1;rounded=0;orthogonalLoop=1;jettySize=auto;html=1;exitX=1;exitY=0.5;exitDx=0;exitDy=0;entryX=1;entryY=0.5;entryDx=0;entryDy=0;dashed=1;" edge="1" parent="1" source="9h0O6dfFpB8sq4Mwi-km-88" target="9h0O6dfFpB8sq4Mwi-km-133">
          <mxGeometry relative="1" as="geometry">
            <Array as="points">
              <mxPoint x="583" y="610" />
              <mxPoint x="190" y="610" />
            </Array>
          </mxGeometry>
        </mxCell>
        <mxCell id="9h0O6dfFpB8sq4Mwi-km-88" value="" style="rounded=1;whiteSpace=wrap;html=1;rotation=90;" parent="1" vertex="1">
          <mxGeometry x="507.5" y="430" width="150" height="30" as="geometry" />
        </mxCell>
        <mxCell id="9h0O6dfFpB8sq4Mwi-km-89" value="" style="ellipse;whiteSpace=wrap;html=1;aspect=fixed;gradientColor=#ffa500;fillColor=#ffcd28;strokeColor=#d79b00;" parent="1" vertex="1">
          <mxGeometry x="572.5" y="375" width="20" height="20" as="geometry" />
        </mxCell>
        <mxCell id="9h0O6dfFpB8sq4Mwi-km-90" value="" style="ellipse;whiteSpace=wrap;html=1;aspect=fixed;gradientColor=#ffa500;fillColor=#ffcd28;strokeColor=#d79b00;" parent="1" vertex="1">
          <mxGeometry x="572.5" y="405" width="20" height="20" as="geometry" />
        </mxCell>
        <mxCell id="9h0O6dfFpB8sq4Mwi-km-91" value="" style="ellipse;whiteSpace=wrap;html=1;aspect=fixed;gradientColor=#ffa500;fillColor=#ffcd28;strokeColor=#d79b00;" parent="1" vertex="1">
          <mxGeometry x="572.5" y="465" width="20" height="20" as="geometry" />
        </mxCell>
        <mxCell id="9h0O6dfFpB8sq4Mwi-km-92" value="" style="ellipse;whiteSpace=wrap;html=1;aspect=fixed;gradientColor=#ffa500;fillColor=#ffcd28;strokeColor=#d79b00;" parent="1" vertex="1">
          <mxGeometry x="572.5" y="495" width="20" height="20" as="geometry" />
        </mxCell>
        <mxCell id="9h0O6dfFpB8sq4Mwi-km-93" value="" style="ellipse;whiteSpace=wrap;html=1;aspect=fixed;gradientColor=#ffa500;fillColor=#ffcd28;strokeColor=#d79b00;" parent="1" vertex="1">
          <mxGeometry x="572.5" y="435" width="20" height="20" as="geometry" />
        </mxCell>
        <mxCell id="9h0O6dfFpB8sq4Mwi-km-108" value="S4" style="text;html=1;strokeColor=none;fillColor=none;align=center;verticalAlign=middle;whiteSpace=wrap;rounded=0;" parent="1" vertex="1">
          <mxGeometry x="235" y="525" width="40" height="20" as="geometry" />
        </mxCell>
        <mxCell id="9h0O6dfFpB8sq4Mwi-km-216" style="edgeStyle=orthogonalEdgeStyle;rounded=0;orthogonalLoop=1;jettySize=auto;html=1;exitX=0;exitY=0.5;exitDx=0;exitDy=0;entryX=0;entryY=0.5;entryDx=0;entryDy=0;" parent="1" source="9h0O6dfFpB8sq4Mwi-km-109" target="9h0O6dfFpB8sq4Mwi-km-133" edge="1">
          <mxGeometry relative="1" as="geometry" />
        </mxCell>
        <mxCell id="9h0O6dfFpB8sq4Mwi-km-217" style="edgeStyle=orthogonalEdgeStyle;rounded=0;orthogonalLoop=1;jettySize=auto;html=1;exitX=0;exitY=0.5;exitDx=0;exitDy=0;entryX=0;entryY=0.5;entryDx=0;entryDy=0;" parent="1" source="9h0O6dfFpB8sq4Mwi-km-109" target="9h0O6dfFpB8sq4Mwi-km-126" edge="1">
          <mxGeometry relative="1" as="geometry" />
        </mxCell>
        <mxCell id="9h0O6dfFpB8sq4Mwi-km-109" value="" style="rounded=1;whiteSpace=wrap;html=1;rotation=90;" parent="1" vertex="1">
          <mxGeometry x="180" y="430" width="150" height="30" as="geometry" />
        </mxCell>
        <mxCell id="9h0O6dfFpB8sq4Mwi-km-110" value="" style="ellipse;whiteSpace=wrap;html=1;aspect=fixed;gradientColor=#ffa500;fillColor=#ffcd28;strokeColor=#d79b00;" parent="1" vertex="1">
          <mxGeometry x="245" y="375" width="20" height="20" as="geometry" />
        </mxCell>
        <mxCell id="9h0O6dfFpB8sq4Mwi-km-111" value="" style="ellipse;whiteSpace=wrap;html=1;aspect=fixed;gradientColor=#ffa500;fillColor=#ffcd28;strokeColor=#d79b00;" parent="1" vertex="1">
          <mxGeometry x="245" y="405" width="20" height="20" as="geometry" />
        </mxCell>
        <mxCell id="9h0O6dfFpB8sq4Mwi-km-112" value="" style="ellipse;whiteSpace=wrap;html=1;aspect=fixed;gradientColor=#ffa500;fillColor=#ffcd28;strokeColor=#d79b00;" parent="1" vertex="1">
          <mxGeometry x="245" y="465" width="20" height="20" as="geometry" />
        </mxCell>
        <mxCell id="9h0O6dfFpB8sq4Mwi-km-113" value="" style="ellipse;whiteSpace=wrap;html=1;aspect=fixed;gradientColor=#ffa500;fillColor=#ffcd28;strokeColor=#d79b00;" parent="1" vertex="1">
          <mxGeometry x="245" y="495" width="20" height="20" as="geometry" />
        </mxCell>
        <mxCell id="9h0O6dfFpB8sq4Mwi-km-114" value="" style="ellipse;whiteSpace=wrap;html=1;aspect=fixed;gradientColor=#ffa500;fillColor=#ffcd28;strokeColor=#d79b00;" parent="1" vertex="1">
          <mxGeometry x="245" y="435" width="20" height="20" as="geometry" />
        </mxCell>
        <mxCell id="9h0O6dfFpB8sq4Mwi-km-115" value="S5" style="text;html=1;strokeColor=none;fillColor=none;align=center;verticalAlign=middle;whiteSpace=wrap;rounded=0;" parent="1" vertex="1">
          <mxGeometry x="672.5" y="525" width="40" height="20" as="geometry" />
        </mxCell>
        <mxCell id="9h0O6dfFpB8sq4Mwi-km-116" value="" style="rounded=1;whiteSpace=wrap;html=1;rotation=90;" parent="1" vertex="1">
          <mxGeometry x="617.5" y="430" width="150" height="30" as="geometry" />
        </mxCell>
        <mxCell id="9h0O6dfFpB8sq4Mwi-km-117" value="" style="ellipse;whiteSpace=wrap;html=1;aspect=fixed;gradientColor=#ffa500;fillColor=#ffcd28;strokeColor=#d79b00;" parent="1" vertex="1">
          <mxGeometry x="682.5" y="375" width="20" height="20" as="geometry" />
        </mxCell>
        <mxCell id="9h0O6dfFpB8sq4Mwi-km-118" value="" style="ellipse;whiteSpace=wrap;html=1;aspect=fixed;gradientColor=#ffa500;fillColor=#ffcd28;strokeColor=#d79b00;" parent="1" vertex="1">
          <mxGeometry x="682.5" y="405" width="20" height="20" as="geometry" />
        </mxCell>
        <mxCell id="9h0O6dfFpB8sq4Mwi-km-119" value="" style="ellipse;whiteSpace=wrap;html=1;aspect=fixed;gradientColor=#ffa500;fillColor=#ffcd28;strokeColor=#d79b00;" parent="1" vertex="1">
          <mxGeometry x="682.5" y="465" width="20" height="20" as="geometry" />
        </mxCell>
        <mxCell id="9h0O6dfFpB8sq4Mwi-km-120" value="" style="ellipse;whiteSpace=wrap;html=1;aspect=fixed;gradientColor=#ffa500;fillColor=#ffcd28;strokeColor=#d79b00;" parent="1" vertex="1">
          <mxGeometry x="682.5" y="495" width="20" height="20" as="geometry" />
        </mxCell>
        <mxCell id="9h0O6dfFpB8sq4Mwi-km-121" value="" style="ellipse;whiteSpace=wrap;html=1;aspect=fixed;gradientColor=#ffa500;fillColor=#ffcd28;strokeColor=#d79b00;" parent="1" vertex="1">
          <mxGeometry x="682.5" y="435" width="20" height="20" as="geometry" />
        </mxCell>
        <mxCell id="9h0O6dfFpB8sq4Mwi-km-123" value="ranked sentences" style="text;html=1;strokeColor=none;fillColor=none;align=center;verticalAlign=middle;whiteSpace=wrap;rounded=0;" parent="1" vertex="1">
          <mxGeometry x="720" y="420" width="90" height="40" as="geometry" />
        </mxCell>
        <mxCell id="9h0O6dfFpB8sq4Mwi-km-125" value="S1" style="text;html=1;strokeColor=none;fillColor=none;align=center;verticalAlign=middle;whiteSpace=wrap;rounded=0;" parent="1" vertex="1">
          <mxGeometry x="115" y="525" width="40" height="20" as="geometry" />
        </mxCell>
        <mxCell id="9h0O6dfFpB8sq4Mwi-km-126" value="" style="rounded=1;whiteSpace=wrap;html=1;rotation=90;" parent="1" vertex="1">
          <mxGeometry x="60" y="430" width="150" height="30" as="geometry" />
        </mxCell>
        <mxCell id="9h0O6dfFpB8sq4Mwi-km-127" value="" style="ellipse;whiteSpace=wrap;html=1;aspect=fixed;gradientColor=#ffa500;fillColor=#ffcd28;strokeColor=#d79b00;" parent="1" vertex="1">
          <mxGeometry x="125" y="375" width="20" height="20" as="geometry" />
        </mxCell>
        <mxCell id="9h0O6dfFpB8sq4Mwi-km-128" value="" style="ellipse;whiteSpace=wrap;html=1;aspect=fixed;gradientColor=#ffa500;fillColor=#ffcd28;strokeColor=#d79b00;" parent="1" vertex="1">
          <mxGeometry x="125" y="405" width="20" height="20" as="geometry" />
        </mxCell>
        <mxCell id="9h0O6dfFpB8sq4Mwi-km-129" value="" style="ellipse;whiteSpace=wrap;html=1;aspect=fixed;gradientColor=#ffa500;fillColor=#ffcd28;strokeColor=#d79b00;" parent="1" vertex="1">
          <mxGeometry x="125" y="465" width="20" height="20" as="geometry" />
        </mxCell>
        <mxCell id="9h0O6dfFpB8sq4Mwi-km-130" value="" style="ellipse;whiteSpace=wrap;html=1;aspect=fixed;gradientColor=#ffa500;fillColor=#ffcd28;strokeColor=#d79b00;" parent="1" vertex="1">
          <mxGeometry x="125" y="495" width="20" height="20" as="geometry" />
        </mxCell>
        <mxCell id="9h0O6dfFpB8sq4Mwi-km-131" value="" style="ellipse;whiteSpace=wrap;html=1;aspect=fixed;gradientColor=#ffa500;fillColor=#ffcd28;strokeColor=#d79b00;" parent="1" vertex="1">
          <mxGeometry x="125" y="435" width="20" height="20" as="geometry" />
        </mxCell>
        <mxCell id="9h0O6dfFpB8sq4Mwi-km-132" value="S3" style="text;html=1;strokeColor=none;fillColor=none;align=center;verticalAlign=middle;whiteSpace=wrap;rounded=0;" parent="1" vertex="1">
          <mxGeometry x="170" y="525" width="40" height="20" as="geometry" />
        </mxCell>
        <mxCell id="9h0O6dfFpB8sq4Mwi-km-133" value="" style="rounded=1;whiteSpace=wrap;html=1;rotation=90;" parent="1" vertex="1">
          <mxGeometry x="115" y="430" width="150" height="30" as="geometry" />
        </mxCell>
        <mxCell id="9h0O6dfFpB8sq4Mwi-km-134" value="" style="ellipse;whiteSpace=wrap;html=1;aspect=fixed;gradientColor=#ffa500;fillColor=#ffcd28;strokeColor=#d79b00;" parent="1" vertex="1">
          <mxGeometry x="180" y="375" width="20" height="20" as="geometry" />
        </mxCell>
        <mxCell id="9h0O6dfFpB8sq4Mwi-km-135" value="" style="ellipse;whiteSpace=wrap;html=1;aspect=fixed;gradientColor=#ffa500;fillColor=#ffcd28;strokeColor=#d79b00;" parent="1" vertex="1">
          <mxGeometry x="180" y="405" width="20" height="20" as="geometry" />
        </mxCell>
        <mxCell id="9h0O6dfFpB8sq4Mwi-km-136" value="" style="ellipse;whiteSpace=wrap;html=1;aspect=fixed;gradientColor=#ffa500;fillColor=#ffcd28;strokeColor=#d79b00;" parent="1" vertex="1">
          <mxGeometry x="180" y="465" width="20" height="20" as="geometry" />
        </mxCell>
        <mxCell id="9h0O6dfFpB8sq4Mwi-km-137" value="" style="ellipse;whiteSpace=wrap;html=1;aspect=fixed;gradientColor=#ffa500;fillColor=#ffcd28;strokeColor=#d79b00;" parent="1" vertex="1">
          <mxGeometry x="180" y="495" width="20" height="20" as="geometry" />
        </mxCell>
        <mxCell id="9h0O6dfFpB8sq4Mwi-km-138" value="" style="ellipse;whiteSpace=wrap;html=1;aspect=fixed;gradientColor=#ffa500;fillColor=#ffcd28;strokeColor=#d79b00;" parent="1" vertex="1">
          <mxGeometry x="180" y="435" width="20" height="20" as="geometry" />
        </mxCell>
        <mxCell id="9h0O6dfFpB8sq4Mwi-km-160" value="selects" style="text;html=1;strokeColor=none;fillColor=none;align=center;verticalAlign=middle;whiteSpace=wrap;rounded=0;" parent="1" vertex="1">
          <mxGeometry x="25" y="425" width="90" height="40" as="geometry" />
        </mxCell>
        <mxCell id="9h0O6dfFpB8sq4Mwi-km-161" value="" style="rounded=1;whiteSpace=wrap;html=1;rotation=90;" parent="1" vertex="1">
          <mxGeometry x="115" y="185" width="150" height="30" as="geometry" />
        </mxCell>
        <mxCell id="9h0O6dfFpB8sq4Mwi-km-162" value="" style="ellipse;whiteSpace=wrap;html=1;aspect=fixed;gradientColor=#7ea6e0;fillColor=#dae8fc;strokeColor=#6c8ebf;" parent="1" vertex="1">
          <mxGeometry x="180" y="130" width="20" height="20" as="geometry" />
        </mxCell>
        <mxCell id="9h0O6dfFpB8sq4Mwi-km-163" value="" style="ellipse;whiteSpace=wrap;html=1;aspect=fixed;gradientColor=#7ea6e0;fillColor=#dae8fc;strokeColor=#6c8ebf;" parent="1" vertex="1">
          <mxGeometry x="180" y="160" width="20" height="20" as="geometry" />
        </mxCell>
        <mxCell id="9h0O6dfFpB8sq4Mwi-km-164" value="" style="ellipse;whiteSpace=wrap;html=1;aspect=fixed;gradientColor=#7ea6e0;fillColor=#dae8fc;strokeColor=#6c8ebf;" parent="1" vertex="1">
          <mxGeometry x="180" y="220" width="20" height="20" as="geometry" />
        </mxCell>
        <mxCell id="9h0O6dfFpB8sq4Mwi-km-165" value="" style="ellipse;whiteSpace=wrap;html=1;aspect=fixed;gradientColor=#7ea6e0;fillColor=#dae8fc;strokeColor=#6c8ebf;" parent="1" vertex="1">
          <mxGeometry x="180" y="250" width="20" height="20" as="geometry" />
        </mxCell>
        <mxCell id="9h0O6dfFpB8sq4Mwi-km-166" value="" style="ellipse;whiteSpace=wrap;html=1;aspect=fixed;gradientColor=#7ea6e0;fillColor=#dae8fc;strokeColor=#6c8ebf;" parent="1" vertex="1">
          <mxGeometry x="180" y="190" width="20" height="20" as="geometry" />
        </mxCell>
        <mxCell id="9h0O6dfFpB8sq4Mwi-km-231" style="edgeStyle=orthogonalEdgeStyle;rounded=0;orthogonalLoop=1;jettySize=auto;html=1;exitX=0;exitY=0.5;exitDx=0;exitDy=0;entryX=0;entryY=0.5;entryDx=0;entryDy=0;" parent="1" source="9h0O6dfFpB8sq4Mwi-km-167" target="9h0O6dfFpB8sq4Mwi-km-161" edge="1">
          <mxGeometry relative="1" as="geometry" />
        </mxCell>
        <mxCell id="9h0O6dfFpB8sq4Mwi-km-167" value="" style="rounded=1;whiteSpace=wrap;html=1;rotation=90;" parent="1" vertex="1">
          <mxGeometry x="505" y="185" width="150" height="30" as="geometry" />
        </mxCell>
        <mxCell id="9h0O6dfFpB8sq4Mwi-km-168" value="" style="ellipse;whiteSpace=wrap;html=1;aspect=fixed;gradientColor=#7ea6e0;fillColor=#dae8fc;strokeColor=#6c8ebf;" parent="1" vertex="1">
          <mxGeometry x="570" y="130" width="20" height="20" as="geometry" />
        </mxCell>
        <mxCell id="9h0O6dfFpB8sq4Mwi-km-169" value="" style="ellipse;whiteSpace=wrap;html=1;aspect=fixed;gradientColor=#7ea6e0;fillColor=#dae8fc;strokeColor=#6c8ebf;" parent="1" vertex="1">
          <mxGeometry x="570" y="160" width="20" height="20" as="geometry" />
        </mxCell>
        <mxCell id="9h0O6dfFpB8sq4Mwi-km-170" value="" style="ellipse;whiteSpace=wrap;html=1;aspect=fixed;gradientColor=#7ea6e0;fillColor=#dae8fc;strokeColor=#6c8ebf;" parent="1" vertex="1">
          <mxGeometry x="570" y="220" width="20" height="20" as="geometry" />
        </mxCell>
        <mxCell id="9h0O6dfFpB8sq4Mwi-km-171" value="" style="ellipse;whiteSpace=wrap;html=1;aspect=fixed;gradientColor=#7ea6e0;fillColor=#dae8fc;strokeColor=#6c8ebf;" parent="1" vertex="1">
          <mxGeometry x="570" y="250" width="20" height="20" as="geometry" />
        </mxCell>
        <mxCell id="9h0O6dfFpB8sq4Mwi-km-172" value="" style="ellipse;whiteSpace=wrap;html=1;aspect=fixed;gradientColor=#7ea6e0;fillColor=#dae8fc;strokeColor=#6c8ebf;" parent="1" vertex="1">
          <mxGeometry x="570" y="190" width="20" height="20" as="geometry" />
        </mxCell>
        <mxCell id="9h0O6dfFpB8sq4Mwi-km-207" value="candidates" style="text;html=1;" parent="1" vertex="1">
          <mxGeometry x="290" y="430" width="80" height="30" as="geometry" />
        </mxCell>
        <mxCell id="9h0O6dfFpB8sq4Mwi-km-209" value="S4" style="text;html=1;strokeColor=none;fillColor=none;align=center;verticalAlign=middle;whiteSpace=wrap;rounded=0;" parent="1" vertex="1">
          <mxGeometry x="617.5" y="525" width="40" height="20" as="geometry" />
        </mxCell>
        <mxCell id="1RHUN93Ohzn8sy9XqsTB-8" style="edgeStyle=orthogonalEdgeStyle;curved=1;rounded=0;orthogonalLoop=1;jettySize=auto;html=1;exitX=1;exitY=0.5;exitDx=0;exitDy=0;entryX=1;entryY=0.5;entryDx=0;entryDy=0;dashed=1;" edge="1" parent="1" source="9h0O6dfFpB8sq4Mwi-km-210" target="9h0O6dfFpB8sq4Mwi-km-109">
          <mxGeometry relative="1" as="geometry">
            <Array as="points">
              <mxPoint x="638" y="620" />
              <mxPoint x="255" y="620" />
            </Array>
          </mxGeometry>
        </mxCell>
        <mxCell id="9h0O6dfFpB8sq4Mwi-km-210" value="" style="rounded=1;whiteSpace=wrap;html=1;rotation=90;" parent="1" vertex="1">
          <mxGeometry x="562.5" y="430" width="150" height="30" as="geometry" />
        </mxCell>
        <mxCell id="9h0O6dfFpB8sq4Mwi-km-211" value="" style="ellipse;whiteSpace=wrap;html=1;aspect=fixed;gradientColor=#ffa500;fillColor=#ffcd28;strokeColor=#d79b00;" parent="1" vertex="1">
          <mxGeometry x="627.5" y="375" width="20" height="20" as="geometry" />
        </mxCell>
        <mxCell id="9h0O6dfFpB8sq4Mwi-km-212" value="" style="ellipse;whiteSpace=wrap;html=1;aspect=fixed;gradientColor=#ffa500;fillColor=#ffcd28;strokeColor=#d79b00;" parent="1" vertex="1">
          <mxGeometry x="627.5" y="405" width="20" height="20" as="geometry" />
        </mxCell>
        <mxCell id="9h0O6dfFpB8sq4Mwi-km-213" value="" style="ellipse;whiteSpace=wrap;html=1;aspect=fixed;gradientColor=#ffa500;fillColor=#ffcd28;strokeColor=#d79b00;" parent="1" vertex="1">
          <mxGeometry x="627.5" y="465" width="20" height="20" as="geometry" />
        </mxCell>
        <mxCell id="9h0O6dfFpB8sq4Mwi-km-214" value="" style="ellipse;whiteSpace=wrap;html=1;aspect=fixed;gradientColor=#ffa500;fillColor=#ffcd28;strokeColor=#d79b00;" parent="1" vertex="1">
          <mxGeometry x="627.5" y="495" width="20" height="20" as="geometry" />
        </mxCell>
        <mxCell id="9h0O6dfFpB8sq4Mwi-km-215" value="" style="ellipse;whiteSpace=wrap;html=1;aspect=fixed;gradientColor=#ffa500;fillColor=#ffcd28;strokeColor=#d79b00;" parent="1" vertex="1">
          <mxGeometry x="627.5" y="435" width="20" height="20" as="geometry" />
        </mxCell>
        <mxCell id="9h0O6dfFpB8sq4Mwi-km-219" value="sen-level information compare" style="text;html=1;strokeColor=none;fillColor=none;align=center;verticalAlign=middle;whiteSpace=wrap;rounded=0;dashed=1;" parent="1" vertex="1">
          <mxGeometry x="120" y="320" width="170" height="20" as="geometry" />
        </mxCell>
        <mxCell id="9h0O6dfFpB8sq4Mwi-km-229" value="" style="shape=flexArrow;endArrow=classic;html=1;" parent="1" edge="1">
          <mxGeometry width="50" height="50" relative="1" as="geometry">
            <mxPoint x="189.5" y="350" as="sourcePoint" />
            <mxPoint x="190" y="280" as="targetPoint" />
          </mxGeometry>
        </mxCell>
        <mxCell id="9h0O6dfFpB8sq4Mwi-km-230" value="" style="shape=flexArrow;endArrow=classic;html=1;" parent="1" edge="1">
          <mxGeometry width="50" height="50" relative="1" as="geometry">
            <mxPoint x="582" y="350" as="sourcePoint" />
            <mxPoint x="582.5" y="280" as="targetPoint" />
          </mxGeometry>
        </mxCell>
        <mxCell id="9h0O6dfFpB8sq4Mwi-km-232" value="sen-doc information compare" style="text;html=1;strokeColor=none;fillColor=none;align=center;verticalAlign=middle;whiteSpace=wrap;rounded=0;dashed=1;" parent="1" vertex="1">
          <mxGeometry x="285" y="80" width="170" height="20" as="geometry" />
        </mxCell>
      </root>
    </mxGraphModel>
  </diagram>
</mxfile>
